# xmcd CD database file
#
# Track frame offsets:
#	150
#	18776
#	39447
#	55587
#	66571
#	79837
#	89886
#	105450
#	123971
#	140544
#	156009
#	167825
#	184181
#
# Disc length: 2673 seconds
#
# Revision: 4
# Processed by: cddbd v1.5.2PL0 Copyright (c) Steve Scherf et al.
# Submitted via: CDex 1.70beta2
#
DISCID=aa0a6f0d
DTITLE=Beastie Boys - Licensed To Ill
DYEAR=1986
DGENRE=Hip-Hop
TTITLE0=Rhymin and Stealin■f
TTITLE1=The New Style■f
TTITLE2=She's Crafty■f
TTITLE3=Posse In Effect■f
TTITLE4=Slow Ride■f
TTITLE5=Girls■f
TTITLE6=Fight For Your Right■f
TTITLE7=No Sleep Till Brooklyn■f
TTITLE8=Paul Revere■f
TTITLE9=Hold It Now, Hit It■f
TTITLE10=Brass Monkey■f
TTITLE11=Slow And Low■f
TTITLE12=Time To Get Ill■f
EXTD=YEAR: 1986
EXTT0=
EXTT1=
EXTT2=
EXTT3=
EXTT4=
EXTT5=
EXTT6=
EXTT7=
EXTT8=
EXTT9=
EXTT10=
EXTT11=
EXTT12=
PLAYORDER=
